# xmcd
#
# Track frame offsets: 
#        150
#        19937
#        38610
#        58867
#        74750
#        95895
#        116642
#        136002
#        159157
#        180272
#
# Disc length: 2620 seconds
#
# Revision: 0
# Processed by: cddbd v1.5.2PL0 Copyright (c) Steve Scherf et al.
# Submitted via: ExactAudioCopy v0.95b4
#
DISCID=830a3a0a
DTITLE=장혜진 - DREAM
DYEAR=1998
DGENRE=Ballad
TTITLE0=DREAM
TTITLE1=영원으로
TTITLE2=추억
TTITLE3=내게로 와
TTITLE4=니가 날 알겠니
TTITLE5=영원으로 (Dance Version)
TTITLE6=잃어버린 너
TTITLE7=실연
TTITLE8=My Love
TTITLE9=달콤한 상상
EXTD=
EXTT0=
EXTT1=
EXTT2=
EXTT3=
EXTT4=
EXTT5=
EXTT6=
EXTT7=
EXTT8=
EXTT9=
PLAYORDER=
